HIERARCHY
ROOT Hips
{
	OFFSET 0.000000 0.000000 0.000000
	CHANNELS 6 Xposition Yposition Zposition Zrotation Yrotation Xrotation 
	JOINT LowerBack
	{
		OFFSET 0.000000 0.000000 0.000000
		CHANNELS 3 Zrotation Yrotation Xrotation
		JOINT Spine
		{
			OFFSET 0.028270 2.035590 -0.193380
			CHANNELS 3 Zrotation Yrotation Xrotation
			JOINT Spine1
			{
				OFFSET 0.056720 2.048850 -0.042750
				CHANNELS 3 Zrotation Yrotation Xrotation
				JOINT Neck
				{
					OFFSET 0.000000 0.000000 0.000000
					CHANNELS 3 Zrotation Yrotation Xrotation
					JOINT Neck1
					{
						OFFSET -0.054170 1.746240 0.172020
						CHANNELS 3 Zrotation Yrotation Xrotation
						JOINT Head
						{
							OFFSET 0.104070 1.761360 -0.123970
							CHANNELS 3 Zrotation Yrotation Xrotation
							End Site
							{
								OFFSET 0.000000 0.000000 0.000000
							}
						}
					}
				}
				JOINT LeftShoulder
				{
					OFFSET 0.000000 0.000000 0.000000
					CHANNELS 3 Zrotation Yrotation Xrotation
					JOINT LeftArm
					{
						OFFSET 3.362410 1.200890 -0.311210
						CHANNELS 3 Zrotation Yrotation Xrotation
						JOINT LeftForeArm
						{
							OFFSET 4.983000 -0.000000 -0.000000
							CHANNELS 3 Zrotation Yrotation Xrotation
							JOINT LeftHand
							{
								OFFSET 3.483560 -0.000000 -0.000000
								CHANNELS 3 Zrotation Yrotation Xrotation
								JOINT LeftFingerBase
								{
									OFFSET 0.000000 0.000000 0.000000
									CHANNELS 3 Zrotation Yrotation Xrotation
									JOINT LeftHandIndex1
									{
										OFFSET 0.715260 -0.000000 -0.000000
										CHANNELS 3 Zrotation Yrotation Xrotation
										End Site
										{
											OFFSET 0.000000 0.000000 0.000000
										}
									}
								}
								JOINT LThumb
								{
									OFFSET 0.000000 0.000000 0.000000
									CHANNELS 3 Zrotation Yrotation Xrotation
									End Site
									{
										OFFSET 0.000000 0.000000 0.000000
									}
								}
							}
						}
					}
				}
				JOINT RightShoulder
				{
					OFFSET 0.000000 0.000000 0.000000
					CHANNELS 3 Zrotation Yrotation Xrotation
					JOINT RightArm
					{
						OFFSET -3.136600 1.374050 -0.404650
						CHANNELS 3 Zrotation Yrotation Xrotation
						JOINT RightForeArm
						{
							OFFSET -5.241900 -0.000000 -0.000000
							CHANNELS 3 Zrotation Yrotation Xrotation
							JOINT RightHand
							{
								OFFSET -3.444170 -0.000000 -0.000000
								CHANNELS 3 Zrotation Yrotation Xrotation
								JOINT RightFingerBase
								{
									OFFSET 0.000000 0.000000 0.000000
									CHANNELS 3 Zrotation Yrotation Xrotation
									JOINT RightHandIndex1
									{
										OFFSET -0.622530 -0.000000 -0.000000
										CHANNELS 3 Zrotation Yrotation Xrotation
										End Site
										{
											OFFSET 0.000000 0.000000 0.000000
										}
									}
								}
								JOINT RThumb
								{
									OFFSET 0.000000 0.000000 0.000000
									CHANNELS 3 Zrotation Yrotation Xrotation
									End Site
									{
										OFFSET 0.000000 0.000000 0.000000
									}
								}
							}
						}
					}
				}
			}
		}
	}
}
}
MOTION
Frames: 19
Frame Time: 0.008333
22.950285 16.064759 2.211664 141.894389 -87.617683 -101.365146 -7.287837 1.449497 0.956344 -2.688810 1.723719 -2.474514 -5.537734 1.640309 1.425816 5.859362 2.176557 2.567360 -2.774810 -0.315987 2.296581 0.000000 0.000000 0.000000 1.735220 3.643625 2.413242 -35.659153 9.731826 3.281602 -4.483656 -12.887394 -0.012160 -0.206161 3.491537 -0.000158 -0.198931 -0.036063 -0.000000 0.000000 0.000000 0.000000 0.000000 0.000000 0.000000 9.601610 4.212392 -2.064821 83.873232 34.790127 44.466095 1.458076 61.520845 0.014268 2.060432 9.957270 0.185157 0.009853 -0.324000 -0.000000 0.000000 0.000000 0.000000 0.000000 0.000000 0.000000 
22.764413 15.932004 2.212683 138.267828 -87.609287 -97.858211 -7.602620 1.367832 1.313902 -2.776581 1.650422 -2.428005 -5.620739 1.568764 1.279750 6.163148 2.379735 2.519428 -2.818373 -0.317421 2.278319 0.000000 0.000000 0.000000 1.623382 3.134816 2.507991 -35.183552 10.302277 4.340290 -4.485121 -13.386250 -0.011799 -0.169007 3.410150 0.000949 -0.198158 -0.037453 -0.000000 0.000000 0.000000 0.000000 0.000000 0.000000 0.000000 10.156080 4.452724 -1.935882 83.119254 34.743772 43.597278 1.414924 62.154298 0.013718 1.930063 10.188393 0.177657 0.008565 -0.335283 -0.000000 0.000000 0.000000 0.000000 0.000000 0.000000 0.000000 
22.580820 15.802660 2.210814 134.217344 -87.543532 -93.972222 -7.960615 1.305625 1.743208 -2.878275 1.595252 -2.374176 -5.718589 1.515402 1.101140 6.514490 2.650638 2.521376 -2.873936 -0.320020 2.270590 0.000000 0.000000 0.000000 1.395579 2.470675 2.600654 -34.587388 10.851272 5.345857 -4.500199 -13.770883 -0.011270 -0.210095 3.266444 -0.000345 -0.197216 -0.038654 -0.000000 0.000000 0.000000 0.000000 0.000000 0.000000 0.000000 10.811886 4.750387 -1.798510 82.324347 34.579643 42.436788 1.369730 62.651488 0.012785 1.750147 10.414003 0.164854 0.007091 -0.346879 -0.000000 0.000000 0.000000 0.000000 0.000000 0.000000 0.000000 
22.399048 15.678772 2.206679 130.154720 -87.419415 -90.112081 -8.353511 1.265254 2.241240 -2.990545 1.559736 -2.309287 -5.827367 1.481927 0.906009 6.904523 2.971181 2.557803 -2.941107 -0.323495 2.268844 0.000000 0.000000 0.000000 1.067389 1.750721 2.688885 -33.908506 11.193981 6.287360 -4.528681 -13.916947 -0.010585 -0.313939 3.063336 -0.003142 -0.196221 -0.039253 -0.000000 0.000000 0.000000 0.000000 0.000000 0.000000 0.000000 11.558381 5.078994 -1.662903 81.506964 34.309399 41.017735 1.321312 62.994082 0.011304 1.487835 10.644087 0.143350 0.005865 -0.358400 -0.000000 0.000000 0.000000 0.000000 0.000000 0.000000 0.000000 
22.218519 15.562023 2.201083 126.403813 -87.244687 -86.590622 -8.762925 1.247237 2.793971 -3.108157 1.543208 -2.238015 -5.945420 1.467150 0.690312 7.319594 3.347597 2.633679 -3.018168 -0.327810 2.274900 0.000000 0.000000 0.000000 0.631131 0.950722 2.772624 -33.167985 11.373334 7.122304 -4.570120 -13.838778 -0.009877 -0.467583 2.838571 -0.006742 -0.195327 -0.039307 -0.000000 0.000000 0.000000 0.000000 0.000000 0.000000 0.000000 12.372013 5.441523 -1.530645 80.681012 33.907197 39.337878 1.268366 63.171079 0.009148 1.127063 10.883639 0.111144 0.005007 -0.369652 -0.000000 0.000000 0.000000 0.000000 0.000000 0.000000 0.000000 
22.038717 15.453731 2.195049 123.137445 -87.036658 -83.571954 -9.167166 1.250648 3.387750 -3.224853 1.543937 -2.159340 -6.067816 1.469350 0.468902 7.746587 3.760569 2.734568 -3.104036 -0.332680 2.285078 0.000000 0.000000 0.000000 0.118523 0.144713 2.849900 -32.434796 11.268088 7.784062 -4.620985 -13.459502 -0.009209 -0.632455 2.618905 -0.010145 -0.194665 -0.038261 -0.000000 0.000000 0.000000 0.000000 0.000000 0.000000 0.000000 13.233309 5.811545 -1.409333 79.862309 33.390116 37.447788 1.210110 63.165856 0.006159 0.638681 11.143635 0.064533 0.004947 -0.380160 -0.000000 0.000000 0.000000 0.000000 0.000000 0.000000 0.000000 
21.858590 15.354820 2.189587 120.400847 -86.815867 -81.090795 -9.540437 1.273580 4.001426 -3.334013 1.559504 -2.077906 -6.191976 1.485633 0.243628 8.170067 4.204808 2.859691 -3.196864 -0.338006 2.300034 0.000000 0.000000 0.000000 -0.458252 -0.677850 2.920271 -31.755708 10.916639 8.190882 -4.676491 -12.808652 -0.008700 -0.767697 2.452308 -0.012454 -0.194282 -0.035850 -0.000000 0.000000 0.000000 0.000000 0.000000 0.000000 0.000000 14.116505 6.181326 -1.299723 79.063280 32.753977 35.376061 1.146059 62.965510 0.002250 0.010457 11.428841 0.001023 0.005833 -0.389560 -0.000000 0.000000 0.000000 0.000000 0.000000 0.000000 0.000000 
21.677346 15.265903 2.185675 118.152658 -86.601665 -79.095714 -9.855242 1.311836 4.611763 -3.428594 1.585830 -1.999369 -6.315765 1.511384 0.014618 8.570716 4.686245 3.010039 -3.293283 -0.343630 2.321132 0.000000 0.000000 0.000000 -1.102498 -1.520301 2.984176 -31.152663 10.369729 8.306409 -4.730701 -11.950168 -0.008469 -0.823445 2.386070 -0.013264 -0.194121 -0.031885 -0.000000 0.000000 0.000000 0.000000 0.000000 0.000000 0.000000 14.983857 6.556133 -1.203763 78.304922 31.981761 33.133196 1.075178 62.561947 -0.002578 -0.748657 11.738538 -0.079892 0.007411 -0.397473 -0.000000 0.000000 0.000000 0.000000 0.000000 0.000000 0.000000 
21.494637 15.187243 2.184153 116.308283 -86.411674 -77.492120 -10.091734 1.360493 5.200289 -3.502782 1.619085 -1.922129 -6.433028 1.543157 -0.197832 8.931026 5.189725 3.165909 -3.390365 -0.349111 2.343597 0.000000 0.000000 0.000000 -1.782038 -2.265445 3.039297 -30.679130 9.467937 8.112747 -4.774004 -10.845261 -0.008521 -0.727472 2.435584 -0.011479 -0.193853 -0.025576 -0.000000 0.000000 0.000000 0.000000 0.000000 0.000000 0.000000 15.800574 6.917490 -1.130856 77.612015 31.096237 30.761365 0.996980 61.943632 -0.008255 -1.628812 12.071363 -0.178713 0.009526 -0.403269 -0.000000 0.000000 0.000000 0.000000 0.000000 0.000000 0.000000 
21.309422 15.118900 2.185544 114.763745 -86.257249 -76.170088 -10.239003 1.414422 5.746260 -3.553602 1.655687 -1.848785 -6.541062 1.577408 -0.385351 9.239776 5.699967 3.320506 -3.486235 -0.354301 2.366554 0.000000 0.000000 0.000000 -2.473890 -2.898404 3.085129 -30.372182 8.225357 7.542188 -4.795661 -9.556160 -0.008901 -0.407974 2.612595 -0.004896 -0.192877 -0.016488 0.000000 0.000000 0.000000 0.000000 0.000000 0.000000 0.000000 16.545265 7.251592 -1.079820 76.995763 30.117416 28.300121 0.911906 61.099210 -0.014615 -2.620142 12.419151 -0.295636 0.012151 -0.406517 -0.000000 0.000000 0.000000 0.000000 0.000000 0.000000 0.000000 
21.121373 15.060840 2.190011 113.411889 -86.143345 -75.017865 -10.292296 1.468296 6.228021 -3.580126 1.691910 -1.786966 -6.640690 1.609855 -0.555378 9.490037 6.216428 3.484846 -3.578429 -0.359302 2.394324 0.000000 0.000000 0.000000 -3.178622 -3.511519 3.125430 -30.235475 6.850135 6.538594 -4.786306 -8.271403 -0.009724 0.197330 2.924223 0.009887 -0.190418 -0.004910 -0.000000 0.000000 0.000000 0.000000 0.000000 0.000000 0.000000 17.200997 7.564722 -1.040360 76.460622 29.040163 25.758264 0.820448 60.025126 -0.021412 -3.699383 12.763385 -0.428765 0.015076 -0.407040 -0.000000 0.000000 0.000000 0.000000 0.000000 0.000000 0.000000 
20.930263 15.012937 2.197561 112.149852 -86.071446 -73.927948 -10.254451 1.516398 6.638137 -3.582068 1.723828 -1.730819 -6.725976 1.637801 -0.683192 9.674078 6.716864 3.633562 -3.664674 -0.363648 2.420058 0.000000 0.000000 0.000000 -3.862307 -3.960481 3.157567 -30.293968 5.147174 5.193747 -4.735182 -6.993258 -0.010951 1.154254 3.307125 0.038570 -0.185563 0.009200 -0.000000 0.000000 0.000000 0.000000 0.000000 0.000000 0.000000 17.746009 7.835794 -1.019849 76.023357 27.909812 23.171197 0.723334 58.717903 -0.028303 -4.840107 13.082078 -0.574797 0.018168 -0.404325 -0.000000 0.000000 0.000000 0.000000 0.000000 0.000000 0.000000 
20.735691 14.975117 2.207830 110.879888 -86.036815 -72.801848 -10.135483 1.554525 6.966569 -3.561974 1.748374 -1.684439 -6.797169 1.658067 -0.774530 9.793694 7.195459 3.774536 -3.743231 -0.367432 2.446623 0.000000 0.000000 0.000000 -4.517541 -4.324950 3.185576 -30.548784 3.305896 3.558131 -4.638582 -5.933175 -0.012642 2.479789 3.709192 0.085456 -0.177621 0.024627 -0.000000 0.000000 0.000000 0.000000 0.000000 0.000000 0.000000 18.176950 8.068127 -1.006624 75.678862 26.736582 20.546032 0.622347 57.183243 -0.034937 -6.017775 13.343643 -0.728531 0.021425 -0.398362 -0.000000 0.000000 0.000000 0.000000 0.000000 0.000000 0.000000 
20.538276 14.947437 2.220373 109.510811 -86.033502 -71.549511 -9.950652 1.579035 7.221494 -3.522680 1.762768 -1.636627 -6.848956 1.669750 -0.800162 9.851028 7.621297 3.873773 -3.813192 -0.370131 2.463960 0.000000 0.000000 0.000000 -5.117002 -4.413918 3.202127 -31.008342 1.049710 1.827834 -4.496602 -5.061746 -0.014682 4.150880 4.013221 0.149748 -0.166436 0.040586 -0.000000 0.000000 0.000000 0.000000 0.000000 0.000000 0.000000 18.488710 8.232433 -1.009785 75.430568 25.587549 17.923303 0.519934 55.427859 -0.040913 -7.209118 13.515514 -0.883467 0.024990 -0.388818 0.000000 0.000000 0.000000 0.000000 0.000000 0.000000 0.000000 
20.337703 14.930053 2.234402 107.965611 -86.049867 -70.101716 -9.718676 1.588758 7.399620 -3.469260 1.765711 -1.598550 -6.885315 1.670135 -0.794401 9.859831 8.004041 3.969378 -3.873467 -0.372321 2.483395 0.000000 0.000000 0.000000 -5.663549 -4.498699 3.216379 -31.680214 -1.116938 0.050186 -4.321750 -4.730644 -0.016975 6.064824 4.174306 0.223745 -0.152495 0.054711 -0.000000 0.000000 0.000000 0.000000 0.000000 0.000000 0.000000 18.699680 8.352627 -1.002228 75.248820 24.440151 15.287669 0.419735 53.475743 -0.045958 -8.391680 13.555754 -1.031002 0.028985 -0.376229 0.000000 0.000000 0.000000 0.000000 0.000000 0.000000 0.000000 
20.129318 14.919120 2.259957 97.303171 -86.055770 -59.376623 -9.107237 1.430265 7.421007 -3.323577 1.598287 -1.575825 -6.914726 1.502060 -0.722907 9.785735 8.315329 4.059928 -3.923897 -0.373317 2.514127 0.000000 0.000000 0.000000 -6.310435 -4.547016 3.235438 -32.542918 -3.291477 -1.535960 -4.133931 -4.961515 -0.019355 8.071550 4.100199 0.289452 -0.138941 0.066598 -0.000000 0.000000 0.000000 0.000000 0.000000 0.000000 0.000000 18.730581 8.284829 -1.006483 75.088975 23.245219 12.700442 0.323173 51.403454 -0.049460 -9.543510 13.428800 -1.161027 0.033873 -0.359060 0.000000 0.000000 0.000000 0.000000 0.000000 0.000000 0.000000 
19.924142 14.923230 2.275246 94.993260 -86.044030 -57.141913 -8.837116 1.402644 7.489460 -3.253482 1.569450 -1.543462 -6.914764 1.472683 -0.648478 9.735032 8.571597 4.132767 -3.963271 -0.374240 2.531749 0.000000 0.000000 0.000000 -6.728678 -4.561661 3.232297 -33.657182 -5.319066 -2.911350 -3.939539 -5.822497 -0.021012 9.999953 3.770759 0.327465 -0.123936 0.073851 -0.000000 0.000000 0.000000 0.000000 0.000000 0.000000 0.000000 18.782907 8.285122 -0.969572 74.977006 22.192443 10.118177 0.240760 49.138257 -0.051931 -10.643904 13.104762 -1.263356 0.039222 -0.340987 0.000000 0.000000 0.000000 0.000000 0.000000 0.000000 0.000000 
19.717132 14.938709 2.290344 92.450919 -86.019947 -54.681154 -8.565910 1.359873 7.534429 -3.179863 1.527377 -1.506791 -6.899697 1.431499 -0.541503 9.676125 8.753135 4.188516 -3.992323 -0.374444 2.545744 0.000000 0.000000 0.000000 -7.102743 -4.509612 3.210905 -34.949138 -7.326492 -3.868292 -3.760794 -7.219554 -0.021776 11.667826 3.160100 0.317989 -0.111570 0.077283 -0.000000 0.000000 0.000000 0.000000 0.000000 0.000000 0.000000 18.785593 8.219249 -0.916664 74.863380 21.218219 7.605679 0.173196 46.769805 -0.052979 -11.664929 12.567231 -1.327582 0.045321 -0.320805 0.000000 0.000000 0.000000 0.000000 0.000000 0.000000 0.000000 
19.508593 14.965852 2.304901 89.750757 -85.979650 -52.077381 -8.297266 1.302747 7.572946 -3.104174 1.472252 -1.464852 -6.873536 1.378393 -0.412455 9.620480 8.864714 4.235441 -4.010939 -0.374029 2.557974 0.000000 0.000000 0.000000 -7.461311 -4.435238 3.170828 -36.368879 -9.248409 -4.310910 -3.611046 -9.112641 -0.021465 12.931990 2.310292 0.255124 -0.103635 0.077532 -0.000000 0.000000 0.000000 0.000000 0.000000 0.000000 0.000000 18.755683 8.095572 -0.844692 74.722219 20.320040 5.188815 0.124757 44.337069 -0.052668 -12.576382 11.818678 -1.346104 0.052053 -0.299128 0.000000 0.000000 0.000000 0.000000 0.000000 0.000000 0.000000 
